<svg xmlns="http://www.w3.org/2000/svg" width="768" height="768"><path fill="#21231D" d="M0 0h768v768H0z"/><path fill="#F6EEDC" d="M142.885 265.582c4.659-.157 8.748-.238 13.237 1.171a33.87 33.87 0 0 1 16.416 11.509c15.772 20.042 6.106 46.289 9.877 51.29 1.646 2.184 27.632 16.955 32.052 19.589l122.359 73.229 28.225 16.922c5.155 3.092 12.369 8.421 18.076 10.056q.765-.21 1.516-.467c5.338-1.838 13.077-7.305 18.116-10.325l38.353-23.005 93.686-55.977c14.937-8.92 30.048-17.618 44.858-26.744 1.61-.993 3.666-2.116 4.873-3.597.635-.779 1.136-1.806 1.253-2.81.41-3.498-.686-7.568-1.135-11.058a63 63 0 0 1-.368-11.644c.411-5.955 2.158-12.055 4.76-17.417 4.305-8.869 11.592-16.169 21.036-19.369a28.5 28.5 0 0 1 21.937 1.469 27.26 27.26 0 0 1 13.853 16.091c2.116 6.583 1.876 15.056-.688 21.488-1.145 2.873-2.808 5.52-4.21 8.27-.808 1.586-2.277 3.847-1.714 5.598 1.623.703 12.861-1.444 16.52-1.335 7.932.236 15.413 2.915 20.877 8.823 4.969 5.373 6.929 11.921 6.609 19.154-.389 8.757-4.593 16.439-11.033 22.285-13.609 12.357-32.144 14.102-48.155 5.105-3.651-2.051-7.566-6.441-11.901-6.518a6.8 6.8 0 0 0-1.855.238c-1.105.288-2.054.823-3.033 1.398l-125.507 75-31.108 18.498c-5.398 3.207-13.25 6.879-17.672 11.252-.589.583-1.284 1.359-1.208 2.232.1 1.15.697 1.841 1.555 2.536 4.933 3.995 11.359 7.174 16.811 10.5l33.298 20.425 64.247 39.501c11.373 7.004 22.651 14.539 34.291 21.064 1.931 1.083 4.31 2.49 6.588 2.114 1.346-.222 2.551-.813 3.617-1.656 2.795-2.211 4.955-5.587 7.482-8.141 10.751-10.866 23.056-20.223 38.747-21.692 9.588-.898 19.181 1.501 26.634 7.745 5.99 5.018 9.993 12.253 10.647 20.08 1.247 14.935-10.208 29.773-23.538 35.364-5.33 2.236-10.357 3.005-15.985 3.895-.702.11-2.465.287-3.021.621-.377.227-.951 1.134-1.262 1.505-.338 2.515 5.179 10.164 6.415 12.962a39 39 0 0 1 3.079 10.598c1.348 9.422-1.2 17.709-6.87 25.203-3.103 3.485-6.86 6.322-11.211 8.054-7.248 2.884-15.992 2.772-23.134-.392-13.956-6.182-23.916-22.012-26.614-36.607-.769-4.159-.255-9.774-1.871-13.572-.783-1.838-2.823-3.05-4.446-4.101-11.422-7.395-23.331-14.195-34.942-21.308l-84.186-51.222-42.229-25.554c-7.314-4.421-14.772-9.694-22.561-13.173-7.218 2.468-14.661 8.102-21.239 12.129l-32.805 19.968-89.731 54.68c-13.528 8.296-27.351 16.312-40.662 24.939-1.579 1.024-2.954 2.087-4.28 3.427-.642 2.784-.687 5.837-.979 8.684a51 51 0 0 1-4.998 17.744c-5.009 10.438-14.246 20.934-25.474 24.744-7.246 2.46-15.502 2.289-22.401-1.184-7.23-3.64-12.235-10.335-14.661-17.955-2.892-9.088-1.419-18.576 3.067-26.906 1.563-2.902 3.576-5.585 5.017-8.55.411-.847.647-1.773.221-2.666-1.348-2.828-9.247-2.748-12.353-3.546-11.257-2.893-20.589-8.89-26.556-19.079-4.294-7.329-5.987-16.368-3.716-24.663 2.07-7.558 7.574-13.935 14.367-17.688 19.287-10.652 40.446-1.117 55.024 12.708 4.789 4.542 10.07 13.014 16.414 14.781l.519.14c1.724-.485 3.217-1.084 4.775-1.964 12.214-6.894 24.086-14.625 36.06-21.944l69.208-42.353 30.005-18.299c5.254-3.205 11.799-6.36 16.259-10.602.398-.379.275-.173.276-.885.003-1.58-.973-2.737-2.09-3.743-3.39-3.055-8.397-5.245-12.335-7.597l-28.474-17.058-106.921-63.788c-3.623-2.165-26.906-16.664-28.812-16.881-4.629-.526-11.914 5.891-16.037 7.88-4.878 2.354-10.494 4.177-15.941 4.388-10.872.422-21.405-3.281-29.354-10.791-6.342-5.992-10.704-14.414-10.867-23.231-.127-6.855 2.243-13.449 7.044-18.384 7.102-7.301 17.549-9.491 27.419-8.253 2.537.319 5.349 1.369 7.905 1.187.982-.07 1.289-.277 1.925-.995.193-1.694-5.975-12.292-7.029-16.8-1.927-8.242-1.154-17.046 3.402-24.332 4.273-6.834 10.648-10.613 18.365-12.412"/><path fill="#D23118" d="M296.575 111.15c20.603-1.748 43.408 4.512 60.176 16.696 6.823 4.958 13.006 11.232 21.27 13.777 15.903 4.897 29.967-8.095 42.953-14.999a89.35 89.35 0 0 1 67.611-6.839c19.905 6.108 35.739 20.295 45.324 38.663 16.125 30.898 14.944 68.822 4.692 101.401-11.768 37.402-38.747 71.163-73.695 89.355-21.532 10.651-44.266 13.86-65.58.764-5.087-3.126-11.871-8.791-18.156-8.484-7.503.368-14.952 7.426-21.47 10.795-6.01 3.107-12.848 5.278-19.578 6.038-24.776 2.795-48.009-8.848-66.824-23.943-33.343-26.749-53.17-67.449-57.748-109.532-3.127-28.744 3.915-60.753 22.315-83.434 15.399-18.982 34.768-27.728 58.71-30.258"/><path fill="#3B5522" d="M494.825 45.158c6.603-1.047 14.451.197 20.918 1.475q-.403 1.465-.83 2.922c-3.37 11.448-8.788 22.348-16.586 31.418-18.606 21.643-37.777 22.573-62.72 30.464-9.076 2.87-17.463 6.685-25.808 11.256-4.518 2.567-8.944 5.31-13.393 7.993 3.004-18.504 12.433-35.888 24.639-49.997 19.101-22.08 45.058-33.409 73.78-35.531"/><path fill="#543B21" d="M386.07 40.634c1.176-.017 2.528.08 3.634.508a6.75 6.75 0 0 1 3.855 3.85c2.31 5.82-3.759 70.663-5.398 81.641-.519 3.477-1.145 8.147-2.759 11.291-.466.909-.901 1.127-1.82 1.479-.321-.064-.503-.073-.798-.288-1.733-1.268-2.343-3.718-2.774-5.68-.82-5.312-1.062-10.75-1.708-16.094-2.778-22.993-5.594-46.95-13.48-68.852 6.537-4.015 13.529-7.183 21.248-7.855"/></svg>